<svg width="40" height="40" viewBox="0 0 40 40" fill="none" xmlns="http://www.w3.org/2000/svg">
<path fill-rule="evenodd" clip-rule="evenodd" d="M3.63636 20C3.63636 17.8511 4.05962 15.7232 4.88197 13.7379C5.70432 11.7526 6.90966 9.94867 8.42916 8.42916C9.94867 6.90966 11.7526 5.70432 13.7379 4.88197C15.7232 4.05962 17.8511 3.63636 20 3.63636C22.1489 3.63636 24.2768 4.05962 26.2621 4.88197C28.2474 5.70432 30.0513 6.90966 31.5708 8.42916C33.0903 9.94867 34.2957 11.7526 35.118 13.7379C35.9404 15.7232 36.3636 17.8511 36.3636 20C36.3636 24.3399 34.6396 28.5021 31.5708 31.5708C28.5021 34.6396 24.3399 36.3636 20 36.3636C15.6601 36.3636 11.4979 34.6396 8.42916 31.5708C5.36038 28.5021 3.63636 24.3399 3.63636 20ZM20 0C8.95455 0 0 8.95455 0 20C0 31.0455 8.95455 40 20 40C31.0455 40 40 31.0455 40 20C40 8.95455 31.0455 0 20 0ZM28.7273 13.8182C28.8705 13.6272 28.9748 13.4098 29.034 13.1785C29.0933 12.9472 29.1064 12.7065 29.0726 12.4701C29.0389 12.2338 28.9589 12.0064 28.8372 11.8009C28.7156 11.5955 28.5547 11.416 28.3636 11.2727C28.1726 11.1295 27.9553 11.0252 27.724 10.966C27.4927 10.9067 27.252 10.8936 27.0156 10.9274C26.7792 10.9611 26.5518 11.0411 26.3464 11.1628C26.1409 11.2844 25.9614 11.4454 25.8182 11.6364L16.1673 24.5055L12.1945 20.5327C11.8516 20.2015 11.3924 20.0183 10.9156 20.0224C10.4389 20.0266 9.98289 20.2178 9.64578 20.5549C9.30868 20.892 9.11746 21.348 9.11332 21.8247C9.10918 22.3014 9.29244 22.7607 9.62364 23.1036L15.0782 28.5582C15.2624 28.7424 15.484 28.8848 15.728 28.9759C15.972 29.067 16.2328 29.1046 16.4926 29.0861C16.7524 29.0677 17.0052 28.9936 17.2339 28.869C17.4626 28.7443 17.6619 28.572 17.8182 28.3636L28.7273 13.8182Z" fill="#DB6D4B"/>
</svg>
