<svg width="40" height="40" viewBox="0 0 40 40" fill="none" xmlns="http://www.w3.org/2000/svg">
<path fill-rule="evenodd" clip-rule="evenodd" d="M3.63636 20C3.63636 17.8511 4.05962 15.7232 4.88197 13.7379C5.70432 11.7526 6.90966 9.94867 8.42916 8.42916C9.94867 6.90966 11.7526 5.70432 13.7379 4.88197C15.7232 4.05962 17.8511 3.63636 20 3.63636C22.1489 3.63636 24.2768 4.05962 26.2621 4.88197C28.2474 5.70432 30.0513 6.90966 31.5708 8.42916C33.0903 9.94867 34.2957 11.7526 35.118 13.7379C35.9404 15.7232 36.3636 17.8511 36.3636 20C36.3636 24.3399 34.6396 28.5021 31.5708 31.5708C28.5021 34.6396 24.3399 36.3636 20 36.3636C15.6601 36.3636 11.4979 34.6396 8.42916 31.5708C5.36038 28.5021 3.63636 24.3399 3.63636 20ZM20 0C8.95455 0 0 8.95455 0 20C0 31.0455 8.95455 40 20 40C31.0455 40 40 31.0455 40 20C40 8.95455 31.0455 0 20 0ZM21.8182 10.9091C21.8182 10.4269 21.6266 9.96442 21.2856 9.62344C20.9447 9.28247 20.4822 9.09091 20 9.09091C19.5178 9.09091 19.0553 9.28247 18.7144 9.62344C18.3734 9.96442 18.1818 10.4269 18.1818 10.9091V18.1818H10.9091C10.4269 18.1818 9.96442 18.3734 9.62344 18.7144C9.28247 19.0553 9.09091 19.5178 9.09091 20C9.09091 20.4822 9.28247 20.9447 9.62344 21.2856C9.96442 21.6266 10.4269 21.8182 10.9091 21.8182H18.1818V29.0909C18.1818 29.5731 18.3734 30.0356 18.7144 30.3766C19.0553 30.7175 19.5178 30.9091 20 30.9091C20.4822 30.9091 20.9447 30.7175 21.2856 30.3766C21.6266 30.0356 21.8182 29.5731 21.8182 29.0909V21.8182H29.0909C29.5731 21.8182 30.0356 21.6266 30.3766 21.2856C30.7175 20.9447 30.9091 20.4822 30.9091 20C30.9091 19.5178 30.7175 19.0553 30.3766 18.7144C30.0356 18.3734 29.5731 18.1818 29.0909 18.1818H21.8182V10.9091Z" fill="#8A8A8A"/>
</svg>
