<svg width="40" height="40" viewBox="0 0 40 40" fill="none" xmlns="http://www.w3.org/2000/svg">
<path fill-rule="evenodd" clip-rule="evenodd" d="M20 0C8.95455 0 0 8.95455 0 20C0 31.0455 8.95455 40 20 40C31.0455 40 40 31.0455 40 20C40 8.95455 31.0455 0 20 0Z" fill="#DB6D4B"/>
<path fill-rule="evenodd" clip-rule="evenodd" d="M29.5273 13.8183C29.6706 13.6273 29.7748 13.4099 29.8341 13.1786C29.8934 12.9473 29.9065 12.7066 29.8727 12.4702C29.839 12.2339 29.759 12.0065 29.6373 11.801C29.5157 11.5956 29.3547 11.4161 29.1637 11.2728C28.9727 11.1296 28.7553 11.0253 28.524 10.9661C28.2927 10.9068 28.052 10.8937 27.8157 10.9275C27.5793 10.9612 27.3519 11.0412 27.1465 11.1629C26.941 11.2845 26.7615 11.4454 26.6183 11.6365L16.9674 24.5055L12.9946 20.5328C12.6517 20.2016 12.1924 20.0184 11.7157 20.0225C11.239 20.0266 10.783 20.2179 10.4459 20.555C10.1088 20.8921 9.91754 21.3481 9.9134 21.8248C9.90926 22.3015 10.0925 22.7608 10.4237 23.1037L15.8783 28.5583C16.0624 28.7424 16.284 28.8849 16.5281 28.976C16.7721 29.0671 17.0328 29.1047 17.2927 29.0862C17.5525 29.0678 17.8053 28.9937 18.034 28.8691C18.2627 28.7444 18.4619 28.5721 18.6183 28.3637L29.5273 13.8183Z" fill="#1D1D1D"/>
</svg>
