<svg width="40" height="40" viewBox="0 0 40 40" fill="none" xmlns="http://www.w3.org/2000/svg">
<path fill-rule="evenodd" clip-rule="evenodd" d="M20 0C8.95455 0 0 8.95455 0 20C0 31.0455 8.95455 40 20 40C31.0455 40 40 31.0455 40 20C40 8.95455 31.0455 0 20 0Z" fill="#8A8A8A"/>
<path fill-rule="evenodd" clip-rule="evenodd" d="M21.8667 10.6667C21.8667 10.1716 21.67 9.6968 21.3199 9.34674C20.9699 8.99667 20.4951 8.8 20 8.8C19.5049 8.8 19.0301 8.99667 18.6801 9.34674C18.33 9.6968 18.1333 10.1716 18.1333 10.6667V18.1333H10.6667C10.1716 18.1333 9.6968 18.33 9.34674 18.6801C8.99667 19.0301 8.8 19.5049 8.8 20C8.8 20.4951 8.99667 20.9699 9.34674 21.3199C9.6968 21.67 10.1716 21.8667 10.6667 21.8667H18.1333V29.3333C18.1333 29.8284 18.33 30.3032 18.6801 30.6533C19.0301 31.0033 19.5049 31.2 20 31.2C20.4951 31.2 20.9699 31.0033 21.3199 30.6533C21.67 30.3032 21.8667 29.8284 21.8667 29.3333V21.8667H29.3333C29.8284 21.8667 30.3032 21.67 30.6533 21.3199C31.0033 20.9699 31.2 20.4951 31.2 20C31.2 19.5049 31.0033 19.0301 30.6533 18.6801C30.3032 18.33 29.8284 18.1333 29.3333 18.1333H21.8667V10.6667Z" fill="#1D1D1D"/>
</svg>
