<svg width="14" height="14" viewBox="0 0 14 14" fill="none" xmlns="http://www.w3.org/2000/svg">
<path fill-rule="evenodd" clip-rule="evenodd" d="M0.292534 0.305288C0.4799 0.117817 0.733989 0.0125018 0.998925 0.0125018C1.26386 0.0125018 1.51795 0.117817 1.70532 0.305288L6.99375 5.59829L12.2822 0.305288C12.3744 0.209778 12.4846 0.133596 12.6065 0.0811869C12.7284 0.0287779 12.8595 0.00119157 12.9922 3.77571e-05C13.1248 -0.00111606 13.2564 0.0241854 13.3792 0.0744663C13.502 0.124747 13.6135 0.199 13.7074 0.292893C13.8012 0.386786 13.8754 0.498438 13.9256 0.621334C13.9758 0.744231 14.0011 0.87591 14 1.00869C13.9988 1.14147 13.9712 1.27269 13.9189 1.39469C13.8665 1.5167 13.7904 1.62704 13.695 1.71929L8.40654 7.01229L13.695 12.3053C13.877 12.4939 13.9777 12.7465 13.9754 13.0087C13.9731 13.2709 13.8681 13.5217 13.6828 13.7071C13.4976 13.8925 13.247 13.9977 12.985 14C12.723 14.0022 12.4706 13.9014 12.2822 13.7193L6.99375 8.42629L1.70532 13.7193C1.51688 13.9014 1.26449 14.0022 1.00252 14C0.74055 13.9977 0.489953 13.8925 0.304705 13.7071C0.119457 13.5217 0.0143782 13.2709 0.0121017 13.0087C0.00982525 12.7465 0.110533 12.4939 0.292534 12.3053L5.58097 7.01229L0.292534 1.71929C0.105225 1.53176 0 1.27745 0 1.01229C0 0.747124 0.105225 0.492816 0.292534 0.305288Z" fill="#8A8A8A"/>
</svg>
