<svg width="45" height="30" viewBox="0 0 45 30" fill="none" xmlns="http://www.w3.org/2000/svg">
<path fill-rule="evenodd" clip-rule="evenodd" d="M19.9995 0C19.3364 0 18.7005 0.263393 18.2317 0.732234C17.7629 1.20107 17.4995 1.83696 17.4995 2.5C17.4995 3.16304 17.7629 3.79893 18.2317 4.26777C18.7005 4.73661 19.3364 5 19.9995 5H42.4995C43.1625 5 43.7984 4.73661 44.2672 4.26777C44.7361 3.79893 44.9995 3.16304 44.9995 2.5C44.9995 1.83696 44.7361 1.20107 44.2672 0.732234C43.7984 0.263393 43.1625 0 42.4995 0H19.9995ZM29.9995 12.5C29.3364 12.5 28.7005 12.7634 28.2317 13.2322C27.7629 13.7011 27.4995 14.337 27.4995 15C27.4995 15.663 27.7629 16.2989 28.2317 16.7678C28.7005 17.2366 29.3364 17.5 29.9995 17.5H42.4995C43.1625 17.5 43.7984 17.2366 44.2672 16.7678C44.7361 16.2989 44.9995 15.663 44.9995 15C44.9995 14.337 44.7361 13.7011 44.2672 13.2322C43.7984 12.7634 43.1625 12.5 42.4995 12.5H29.9995ZM19.9995 25C19.3364 25 18.7005 25.2634 18.2317 25.7322C17.7629 26.2011 17.4995 26.837 17.4995 27.5C17.4995 28.163 17.7629 28.7989 18.2317 29.2678C18.7005 29.7366 19.3364 30 19.9995 30H42.4995C43.1625 30 43.7984 29.7366 44.2672 29.2678C44.7361 28.7989 44.9995 28.163 44.9995 27.5C44.9995 26.837 44.7361 26.2011 44.2672 25.7322C43.7984 25.2634 43.1625 25 42.4995 25H19.9995ZM11.767 9.2675C12.2224 8.79599 12.4743 8.16449 12.4687 7.509C12.463 6.85351 12.2 6.22647 11.7365 5.76295C11.273 5.29943 10.646 5.03651 9.99047 5.03082C9.33498 5.02512 8.70347 5.27711 8.23197 5.7325L0.731966 13.2325C0.263288 13.7013 0 14.3371 0 15C0 15.6629 0.263288 16.2987 0.731966 16.7675L8.23197 24.2675C8.70347 24.7229 9.33498 24.9749 9.99047 24.9692C10.646 24.9635 11.273 24.7006 11.7365 24.237C12.2 23.7735 12.463 23.1465 12.4687 22.491C12.4743 21.8355 12.2224 21.204 11.767 20.7325L8.53447 17.5H17.4995C18.1625 17.5 18.7984 17.2366 19.2672 16.7678C19.7361 16.2989 19.9995 15.663 19.9995 15C19.9995 14.337 19.7361 13.7011 19.2672 13.2322C18.7984 12.7634 18.1625 12.5 17.4995 12.5H8.53447L11.767 9.2675Z" fill="#F0F4F5"/>
</svg>
