<svg width="462" height="60" viewBox="0 0 462 60" fill="none" xmlns="http://www.w3.org/2000/svg">
<rect width="462" height="60" rx="5" fill="#DB6D4B"/>
<path d="M130.07 14.36V19.76C130.07 26.96 127.03 34.08 120.59 36.88L123.75 41.28C131.11 37.88 134.39 29.28 134.39 19.76V14.36H130.07ZM131.11 14.36V19.76C131.11 28.88 134.39 37.12 141.55 40.4L144.67 36.12C138.35 33.4 135.43 26.6 135.43 19.76V14.36H131.11ZM146.43 11.48V48.64H151.79V11.48H146.43ZM190.051 15.32V17.64C190.051 22.28 187.451 27.08 181.251 29.08L184.011 33.2C191.091 30.92 194.411 24.64 194.411 17.64V15.32H190.051ZM191.131 15.32V17.64C191.131 24.28 194.331 30.32 201.251 32.56L203.971 28.44C197.971 26.52 195.451 22 195.451 17.64V15.32H191.131ZM182.691 13.68V17.92H202.691V13.68H182.691ZM205.651 11.52V33.84H210.971V11.52H205.651ZM209.491 20.48V24.84H215.891V20.48H209.491ZM186.251 35.44V39.72H205.651V48.56H210.971V35.44H186.251ZM266.352 11.52V48.56H271.632V11.52H266.352ZM270.432 25.96V30.4H276.992V25.96H270.432ZM242.432 17V21.24H263.992V17H242.432ZM253.272 23.32C247.872 23.32 243.872 27 243.872 32.16C243.872 37.32 247.872 41 253.272 41C258.672 41 262.672 37.32 262.672 32.16C262.672 27 258.672 23.32 253.272 23.32ZM253.272 27.64C255.792 27.64 257.592 29.32 257.592 32.16C257.592 35 255.792 36.68 253.272 36.68C250.752 36.68 248.952 35 248.952 32.16C248.952 29.32 250.752 27.64 253.272 27.64ZM250.592 12.12V18.6H255.912V12.12H250.592ZM328.893 11.52V48.56H334.253V11.52H328.893ZM317.973 15.36V16.32C317.973 26.24 314.133 32.96 303.493 38.08L306.253 42.32C319.413 35.96 323.253 26.68 323.253 15.36H317.973ZM305.453 15.36V19.56H320.493V15.36H305.453Z" fill="#F0F4F5"/>
</svg>
